SubSource-HROTn_VROTdd_SLENn_SANGn.ufo
<glyph name="asterisk" format="2">
  <advance width="434"/>
  <unicode hex="002A"/>
  <outline>
    <contour>
      <point x="176" y="664" type="curve" smooth="yes"/>
      <point x="201" y="603"/>
      <point x="228" y="535"/>
      <point x="251" y="480" type="curve" smooth="yes"/>
      <point x="275" y="419"/>
      <point x="300" y="357"/>
      <point x="325" y="297" type="curve" smooth="yes"/>
      <point x="351" y="235"/>
      <point x="267" y="200"/>
      <point x="241" y="263" type="curve" smooth="yes"/>
      <point x="216" y="323"/>
      <point x="191" y="385"/>
      <point x="167" y="446" type="curve" smooth="yes"/>
      <point x="144" y="501"/>
      <point x="117" y="569"/>
      <point x="92" y="630" type="curve" smooth="yes"/>
      <point x="67" y="692"/>
      <point x="150" y="727"/>
    </contour>
    <contour>
      <point x="325" y="630" type="curve" smooth="yes"/>
      <point x="300" y="569"/>
      <point x="271" y="502"/>
      <point x="247" y="441" type="curve" smooth="yes"/>
      <point x="223" y="382"/>
      <point x="200" y="322"/>
      <point x="176" y="263" type="curve" smooth="yes"/>
      <point x="150" y="201"/>
      <point x="67" y="234"/>
      <point x="92" y="297" type="curve" smooth="yes"/>
      <point x="117" y="357"/>
      <point x="140" y="416"/>
      <point x="163" y="475" type="curve" smooth="yes"/>
      <point x="187" y="535"/>
      <point x="216" y="602"/>
      <point x="241" y="664" type="curve" smooth="yes"/>
      <point x="267" y="726"/>
      <point x="350" y="693"/>
    </contour>
    <contour>
      <point x="357" y="419" type="curve" smooth="yes"/>
      <point x="238" y="419"/>
      <point x="140" y="419"/>
      <point x="60" y="419" type="curve" smooth="yes"/>
      <point x="-8" y="419"/>
      <point x="-7" y="509"/>
      <point x="60" y="509" type="curve" smooth="yes"/>
      <point x="179" y="509"/>
      <point x="277" y="509"/>
      <point x="357" y="509" type="curve" smooth="yes"/>
      <point x="425" y="509"/>
      <point x="425" y="419"/>
    </contour>
  </outline>
</glyph>
<glyph name="comma" format="2">
  <advance width="191"/>
  <unicode hex="002C"/>
  <outline>
    <contour>
      <point x="33" y="-97" type="curve" smooth="yes"/>
      <point x="52" y="-51"/>
      <point x="69" y="28"/>
      <point x="49" y="54" type="curve" smooth="yes"/>
      <point x="8" y="107"/>
      <point x="80" y="162"/>
      <point x="121" y="108" type="curve" smooth="yes"/>
      <point x="160" y="57"/>
      <point x="155" y="-38"/>
      <point x="117" y="-131" type="curve" smooth="yes"/>
      <point x="91" y="-194"/>
      <point x="8" y="-159"/>
    </contour>
  </outline>
</glyph>
<glyph name="zero" format="2">
  <advance width="418"/>
  <unicode hex="0030"/>
  <outline>
    <contour>
      <point x="230" y="84" type="curve" smooth="yes"/>
      <point x="246" y="91"/>
      <point x="259" y="108"/>
      <point x="269" y="126" type="curve" smooth="yes"/>
      <point x="297" y="174"/>
      <point x="313" y="253"/>
      <point x="313" y="341" type="curve" smooth="yes"/>
      <point x="313" y="471"/>
      <point x="275" y="600"/>
      <point x="209" y="600" type="curve" smooth="yes"/>
      <point x="143" y="600"/>
      <point x="105" y="471"/>
      <point x="105" y="341" type="curve" smooth="yes"/>
      <point x="105" y="253"/>
      <point x="121" y="174"/>
      <point x="149" y="127" type="curve" smooth="yes"/>
      <point x="159" y="108"/>
      <point x="172" y="91"/>
      <point x="188" y="84" type="curve" smooth="yes"/>
      <point x="250" y="57"/>
      <point x="214" y="-25"/>
      <point x="152" y="2" type="curve" smooth="yes"/>
      <point x="118" y="17"/>
      <point x="92" y="44"/>
      <point x="71" y="81" type="curve" smooth="yes"/>
      <point x="37" y="140"/>
      <point x="15" y="231"/>
      <point x="15" y="341" type="curve" smooth="yes"/>
      <point x="15" y="561"/>
      <point x="98" y="690"/>
      <point x="209" y="690" type="curve" smooth="yes"/>
      <point x="320" y="690"/>
      <point x="403" y="561"/>
      <point x="403" y="341" type="curve" smooth="yes"/>
      <point x="403" y="231"/>
      <point x="381" y="140"/>
      <point x="347" y="82" type="curve" smooth="yes"/>
      <point x="326" y="44"/>
      <point x="300" y="17"/>
      <point x="266" y="2" type="curve" smooth="yes"/>
      <point x="204" y="-25"/>
      <point x="168" y="57"/>
    </contour>
  </outline>
</glyph>
<glyph name="four" format="2">
  <advance width="371"/>
  <unicode hex="0034"/>
  <outline>
    <contour>
      <point x="334" y="166" type="curve" smooth="yes"/>
      <point x="269" y="166"/>
      <point x="204" y="166"/>
      <point x="161" y="166" type="curve" smooth="yes"/>
      <point x="127" y="166"/>
      <point x="105" y="166"/>
      <point x="92" y="166" type="curve" smooth="yes"/>
      <point x="19" y="166"/>
      <point x="-19" y="214"/>
      <point x="25" y="313" type="curve" smooth="yes"/>
      <point x="34" y="333"/>
      <point x="45" y="358"/>
      <point x="57" y="384" type="curve" smooth="yes"/>
      <point x="77" y="426"/>
      <point x="103" y="482"/>
      <point x="118" y="515" type="curve" smooth="yes"/>
      <point x="130" y="544"/>
      <point x="142" y="570"/>
      <point x="154" y="593" type="curve" smooth="yes"/>
      <point x="212" y="714"/>
      <point x="307" y="722"/>
      <point x="307" y="572" type="curve" smooth="yes"/>
      <point x="307" y="549"/>
      <point x="307" y="522"/>
      <point x="307" y="498" type="curve" smooth="yes"/>
      <point x="307" y="359"/>
      <point x="307" y="202"/>
      <point x="307" y="157" type="curve"/>
      <point x="306" y="105"/>
      <point x="306" y="75"/>
      <point x="306" y="40" type="curve" smooth="yes"/>
      <point x="306" y="-28"/>
      <point x="216" y="-27"/>
      <point x="216" y="40" type="curve" smooth="yes"/>
      <point x="216" y="75"/>
      <point x="216" y="107"/>
      <point x="217" y="157" type="curve"/>
      <point x="217" y="224"/>
      <point x="217" y="405"/>
      <point x="217" y="498" type="curve" smooth="yes"/>
      <point x="217" y="533"/>
      <point x="217" y="556"/>
      <point x="217" y="572" type="curve" smooth="yes"/>
      <point x="217" y="579"/>
      <point x="237" y="559"/>
      <point x="234" y="553" type="curve" smooth="yes"/>
      <point x="224" y="532"/>
      <point x="212" y="506"/>
      <point x="200" y="479" type="curve" smooth="yes"/>
      <point x="185" y="444"/>
      <point x="159" y="388"/>
      <point x="139" y="346" type="curve" smooth="yes"/>
      <point x="127" y="321"/>
      <point x="116" y="295"/>
      <point x="107" y="277" type="curve" smooth="yes"/>
      <point x="105" y="272"/>
      <point x="89" y="256"/>
      <point x="92" y="256" type="curve" smooth="yes"/>
      <point x="111" y="256"/>
      <point x="138" y="256"/>
      <point x="161" y="256" type="curve" smooth="yes"/>
      <point x="226" y="256"/>
      <point x="291" y="256"/>
      <point x="334" y="256" type="curve" smooth="yes"/>
      <point x="402" y="256"/>
      <point x="402" y="166"/>
    </contour>
  </outline>
</glyph>
<glyph name="five" format="2">
  <advance width="355"/>
  <unicode hex="0035"/>
  <outline>
    <contour>
      <point x="276" y="590" type="curve" smooth="yes"/>
      <point x="101" y="590" type="line"/>
      <point x="146" y="632" type="line"/>
      <point x="126" y="353" type="line"/>
      <point x="67" y="399" type="line"/>
      <point x="216" y="449"/>
      <point x="343" y="383"/>
      <point x="343" y="205" type="curve" smooth="yes"/>
      <point x="343" y="9"/>
      <point x="191" y="-56"/>
      <point x="46" y="25" type="curve" smooth="yes"/>
      <point x="-13" y="57"/>
      <point x="31" y="136"/>
      <point x="90" y="103" type="curve" smooth="yes"/>
      <point x="179" y="54"/>
      <point x="253" y="84"/>
      <point x="253" y="205" type="curve" smooth="yes"/>
      <point x="253" y="317"/>
      <point x="190" y="345"/>
      <point x="95" y="313" type="curve" smooth="yes"/>
      <point x="65" y="303"/>
      <point x="34" y="327"/>
      <point x="36" y="359" type="curve" smooth="yes"/>
      <point x="56" y="638" type="line" smooth="yes"/>
      <point x="58" y="662"/>
      <point x="77" y="680"/>
      <point x="101" y="680" type="curve" smooth="yes"/>
      <point x="276" y="680" type="line" smooth="yes"/>
      <point x="344" y="680"/>
      <point x="344" y="590"/>
    </contour>
  </outline>
</glyph>
<glyph name="nine" format="2">
  <advance width="378"/>
  <unicode hex="0039"/>
  <outline>
    <contour>
      <point x="345" y="526" type="curve" smooth="yes"/>
      <point x="369" y="355"/>
      <point x="287" y="239"/>
      <point x="178" y="239" type="curve" smooth="yes"/>
      <point x="87" y="239"/>
      <point x="10" y="324"/>
      <point x="10" y="458" type="curve" smooth="yes"/>
      <point x="10" y="595"/>
      <point x="81" y="687"/>
      <point x="182" y="687" type="curve" smooth="yes"/>
      <point x="266" y="687"/>
      <point x="363" y="610"/>
      <point x="363" y="365" type="curve" smooth="yes"/>
      <point x="363" y="-3"/>
      <point x="169" y="-59"/>
      <point x="53" y="28" type="curve" smooth="yes"/>
      <point x="-1" y="69"/>
      <point x="53" y="141"/>
      <point x="107" y="100" type="curve" smooth="yes"/>
      <point x="183" y="43"/>
      <point x="273" y="123"/>
      <point x="273" y="365" type="curve" smooth="yes"/>
      <point x="273" y="512"/>
      <point x="233" y="597"/>
      <point x="182" y="597" type="curve" smooth="yes"/>
      <point x="128" y="597"/>
      <point x="100" y="531"/>
      <point x="100" y="458" type="curve" smooth="yes"/>
      <point x="100" y="388"/>
      <point x="130" y="329"/>
      <point x="178" y="329" type="curve" smooth="yes"/>
      <point x="239" y="329"/>
      <point x="269" y="418"/>
      <point x="255" y="514" type="curve" smooth="yes"/>
      <point x="246" y="581"/>
      <point x="335" y="593"/>
    </contour>
  </outline>
</glyph>
<glyph name="greater" format="2">
  <advance width="317"/>
  <unicode hex="003E"/>
  <outline>
    <contour>
      <point x="34" y="176" type="curve" smooth="yes"/>
      <point x="76" y="211"/>
      <point x="120" y="253"/>
      <point x="175" y="296" type="curve" smooth="yes"/>
      <point x="195" y="311"/>
      <point x="193" y="306"/>
      <point x="172" y="323" type="curve" smooth="yes"/>
      <point x="119" y="369"/>
      <point x="77" y="405"/>
      <point x="34" y="440" type="curve" smooth="yes"/>
      <point x="-18" y="484"/>
      <point x="40" y="553"/>
      <point x="92" y="510" type="curve" smooth="yes"/>
      <point x="135" y="473"/>
      <point x="177" y="437"/>
      <point x="230" y="393" type="curve" smooth="yes"/>
      <point x="315" y="322"/>
      <point x="312" y="290"/>
      <point x="231" y="224" type="curve" smooth="yes"/>
      <point x="178" y="183"/>
      <point x="136" y="143"/>
      <point x="92" y="106" type="curve" smooth="yes"/>
      <point x="40" y="63"/>
      <point x="-18" y="132"/>
    </contour>
  </outline>
</glyph>
<glyph name="M" format="2">
  <advance width="572"/>
  <unicode hex="004D"/>
  <outline>
    <contour>
      <point x="438" y="40" type="curve" smooth="yes"/>
      <point x="438" y="88"/>
      <point x="438" y="125"/>
      <point x="438" y="157" type="curve" smooth="yes"/>
      <point x="438" y="234"/>
      <point x="438" y="295"/>
      <point x="438" y="348" type="curve" smooth="yes"/>
      <point x="438" y="414"/>
      <point x="438" y="460"/>
      <point x="438" y="528" type="curve" smooth="yes"/>
      <point x="438" y="540"/>
      <point x="463" y="528"/>
      <point x="459" y="516" type="curve" smooth="yes"/>
      <point x="445" y="460"/>
      <point x="429" y="399"/>
      <point x="413" y="337" type="curve" smooth="yes"/>
      <point x="395" y="269"/>
      <point x="378" y="202"/>
      <point x="362" y="138" type="curve" smooth="yes"/>
      <point x="318" y="-37"/>
      <point x="256" y="-37"/>
      <point x="210" y="138" type="curve" smooth="yes"/>
      <point x="194" y="202"/>
      <point x="177" y="269"/>
      <point x="159" y="336" type="curve" smooth="yes"/>
      <point x="144" y="397"/>
      <point x="127" y="458"/>
      <point x="112" y="516" type="curve" smooth="yes"/>
      <point x="109" y="527"/>
      <point x="134" y="539"/>
      <point x="134" y="527" type="curve" smooth="yes"/>
      <point x="134" y="455"/>
      <point x="134" y="397"/>
      <point x="134" y="348" type="curve" smooth="yes"/>
      <point x="134" y="268"/>
      <point x="134" y="205"/>
      <point x="134" y="152" type="curve" smooth="yes"/>
      <point x="134" y="107"/>
      <point x="134" y="70"/>
      <point x="134" y="40" type="curve" smooth="yes"/>
      <point x="134" y="-28"/>
      <point x="44" y="-27"/>
      <point x="44" y="40" type="curve" smooth="yes"/>
      <point x="44" y="85"/>
      <point x="44" y="122"/>
      <point x="44" y="152" type="curve" smooth="yes"/>
      <point x="44" y="231"/>
      <point x="44" y="294"/>
      <point x="44" y="348" type="curve" smooth="yes"/>
      <point x="44" y="421"/>
      <point x="44" y="479"/>
      <point x="44" y="527" type="curve" smooth="yes"/>
      <point x="44" y="742"/>
      <point x="141" y="759"/>
      <point x="200" y="538" type="curve" smooth="yes"/>
      <point x="215" y="478"/>
      <point x="231" y="418"/>
      <point x="247" y="360" type="curve" smooth="yes"/>
      <point x="265" y="291"/>
      <point x="282" y="224"/>
      <point x="298" y="160" type="curve" smooth="yes"/>
      <point x="300" y="151"/>
      <point x="272" y="151"/>
      <point x="274" y="160" type="curve" smooth="yes"/>
      <point x="290" y="224"/>
      <point x="307" y="291"/>
      <point x="325" y="359" type="curve" smooth="yes"/>
      <point x="341" y="421"/>
      <point x="357" y="482"/>
      <point x="373" y="540" type="curve" smooth="yes"/>
      <point x="432" y="762"/>
      <point x="528" y="744"/>
      <point x="528" y="528" type="curve" smooth="yes"/>
      <point x="528" y="427"/>
      <point x="528" y="392"/>
      <point x="528" y="348" type="curve" smooth="yes"/>
      <point x="528" y="269"/>
      <point x="528" y="209"/>
      <point x="528" y="157" type="curve" smooth="yes"/>
      <point x="528" y="109"/>
      <point x="528" y="72"/>
      <point x="528" y="40" type="curve" smooth="yes"/>
      <point x="528" y="-28"/>
      <point x="438" y="-27"/>
    </contour>
  </outline>
</glyph>
<glyph name="Z" format="2">
  <advance width="421"/>
  <unicode hex="005A"/>
  <outline>
    <contour>
      <point x="74" y="680" type="curve" smooth="yes"/>
      <point x="117" y="680"/>
      <point x="190" y="680"/>
      <point x="229" y="680" type="curve" smooth="yes"/>
      <point x="258" y="680"/>
      <point x="268" y="680"/>
      <point x="289" y="680" type="curve" smooth="yes"/>
      <point x="400" y="680"/>
      <point x="420" y="654"/>
      <point x="359" y="533" type="curve" smooth="yes"/>
      <point x="340" y="496"/>
      <point x="332" y="479"/>
      <point x="316" y="448" type="curve" smooth="yes"/>
      <point x="292" y="402"/>
      <point x="211" y="244"/>
      <point x="188" y="198" type="curve" smooth="yes"/>
      <point x="172" y="164"/>
      <point x="157" y="139"/>
      <point x="145" y="113" type="curve" smooth="yes"/>
      <point x="142" y="107"/>
      <point x="125" y="90"/>
      <point x="130" y="90" type="curve" smooth="yes"/>
      <point x="162" y="90"/>
      <point x="175" y="90"/>
      <point x="200" y="90" type="curve" smooth="yes"/>
      <point x="257" y="90"/>
      <point x="304" y="90"/>
      <point x="347" y="90" type="curve" smooth="yes"/>
      <point x="415" y="90"/>
      <point x="415" y="0"/>
      <point x="347" y="0" type="curve" smooth="yes"/>
      <point x="284" y="0"/>
      <point x="238" y="0"/>
      <point x="200" y="0" type="curve" smooth="yes"/>
      <point x="163" y="0"/>
      <point x="151" y="0"/>
      <point x="130" y="0" type="curve" smooth="yes"/>
      <point x="27" y="0"/>
      <point x="6" y="32"/>
      <point x="63" y="153" type="curve" smooth="yes"/>
      <point x="77" y="181"/>
      <point x="92" y="206"/>
      <point x="108" y="238" type="curve" smooth="yes"/>
      <point x="131" y="284"/>
      <point x="212" y="444"/>
      <point x="236" y="490" type="curve" smooth="yes"/>
      <point x="252" y="521"/>
      <point x="260" y="537"/>
      <point x="279" y="573" type="curve" smooth="yes"/>
      <point x="282" y="580"/>
      <point x="295" y="590"/>
      <point x="289" y="590" type="curve" smooth="yes"/>
      <point x="257" y="590"/>
      <point x="249" y="590"/>
      <point x="229" y="590" type="curve" smooth="yes"/>
      <point x="171" y="590"/>
      <point x="103" y="590"/>
      <point x="74" y="590" type="curve" smooth="yes"/>
      <point x="7" y="590"/>
      <point x="7" y="680"/>
    </contour>
  </outline>
</glyph>
<glyph name="asciicircum" format="2">
  <advance width="396"/>
  <unicode hex="005E"/>
  <outline>
    <contour>
      <point x="37" y="318" type="curve" smooth="yes"/>
      <point x="60" y="384"/>
      <point x="84" y="451"/>
      <point x="113" y="537" type="curve" smooth="yes"/>
      <point x="168" y="704"/>
      <point x="223" y="710"/>
      <point x="282" y="535" type="curve" smooth="yes"/>
      <point x="311" y="450"/>
      <point x="336" y="382"/>
      <point x="358" y="318" type="curve" smooth="yes"/>
      <point x="381" y="254"/>
      <point x="296" y="224"/>
      <point x="274" y="288" type="curve" smooth="yes"/>
      <point x="251" y="354"/>
      <point x="225" y="422"/>
      <point x="196" y="507" type="curve" smooth="yes"/>
      <point x="193" y="516"/>
      <point x="202" y="518"/>
      <point x="199" y="509" type="curve" smooth="yes"/>
      <point x="170" y="421"/>
      <point x="144" y="354"/>
      <point x="121" y="288" type="curve" smooth="yes"/>
      <point x="99" y="224"/>
      <point x="14" y="254"/>
    </contour>
  </outline>
</glyph>
<glyph name="d" format="2">
  <advance width="412"/>
  <unicode hex="0064"/>
  <outline>
    <contour>
      <point x="380" y="696" type="curve" smooth="yes"/>
      <point x="380" y="661"/>
      <point x="380" y="629"/>
      <point x="380" y="594" type="curve" smooth="yes"/>
      <point x="380" y="423"/>
      <point x="380" y="372"/>
      <point x="380" y="237" type="curve" smooth="yes"/>
      <point x="380" y="80"/>
      <point x="298" y="-11"/>
      <point x="197" y="-11" type="curve" smooth="yes"/>
      <point x="97" y="-11"/>
      <point x="14" y="91"/>
      <point x="14" y="249" type="curve" smooth="yes"/>
      <point x="14" y="407"/>
      <point x="96" y="508"/>
      <point x="197" y="508" type="curve" smooth="yes"/>
      <point x="297" y="508"/>
      <point x="380" y="409"/>
      <point x="380" y="251" type="curve" smooth="yes"/>
      <point x="380" y="206"/>
      <point x="380" y="152"/>
      <point x="380" y="129" type="curve" smooth="yes"/>
      <point x="380" y="89"/>
      <point x="380" y="56"/>
      <point x="380" y="29" type="curve" smooth="yes"/>
      <point x="380" y="-39"/>
      <point x="290" y="-38"/>
      <point x="290" y="29" type="curve" smooth="yes"/>
      <point x="290" y="69"/>
      <point x="290" y="102"/>
      <point x="290" y="129" type="curve" smooth="yes"/>
      <point x="290" y="163"/>
      <point x="290" y="221"/>
      <point x="290" y="251" type="curve" smooth="yes"/>
      <point x="290" y="340"/>
      <point x="253" y="418"/>
      <point x="197" y="418" type="curve" smooth="yes"/>
      <point x="140" y="418"/>
      <point x="104" y="338"/>
      <point x="104" y="249" type="curve" smooth="yes"/>
      <point x="104" y="160"/>
      <point x="141" y="79"/>
      <point x="197" y="79" type="curve" smooth="yes"/>
      <point x="255" y="79"/>
      <point x="290" y="146"/>
      <point x="290" y="237" type="curve" smooth="yes"/>
      <point x="290" y="438"/>
      <point x="290" y="480"/>
      <point x="290" y="594" type="curve" smooth="yes"/>
      <point x="290" y="646"/>
      <point x="290" y="672"/>
      <point x="290" y="696" type="curve" smooth="yes"/>
      <point x="290" y="764"/>
      <point x="380" y="764"/>
    </contour>
  </outline>
</glyph>
<glyph name="k" format="2">
  <advance width="355"/>
  <unicode hex="006B"/>
  <outline>
    <contour>
      <point x="127" y="695" type="curve" smooth="yes"/>
      <point x="127" y="641"/>
      <point x="127" y="598"/>
      <point x="127" y="562" type="curve" smooth="yes"/>
      <point x="127" y="405"/>
      <point x="127" y="277"/>
      <point x="127" y="172" type="curve" smooth="yes"/>
      <point x="127" y="118"/>
      <point x="127" y="76"/>
      <point x="127" y="40" type="curve" smooth="yes"/>
      <point x="127" y="-28"/>
      <point x="37" y="-27"/>
      <point x="37" y="40" type="curve" smooth="yes"/>
      <point x="37" y="94"/>
      <point x="37" y="136"/>
      <point x="37" y="172" type="curve" smooth="yes"/>
      <point x="37" y="329"/>
      <point x="37" y="457"/>
      <point x="37" y="562" type="curve" smooth="yes"/>
      <point x="37" y="616"/>
      <point x="37" y="659"/>
      <point x="37" y="695" type="curve" smooth="yes"/>
      <point x="37" y="763"/>
      <point x="127" y="763"/>
    </contour>
    <contour>
      <point x="326" y="427" type="curve" smooth="yes"/>
      <point x="289" y="387"/>
      <point x="246" y="345"/>
      <point x="204" y="301" type="curve" smooth="yes"/>
      <point x="164" y="261"/>
      <point x="166" y="272"/>
      <point x="203" y="231" type="curve" smooth="yes"/>
      <point x="247" y="181"/>
      <point x="295" y="120"/>
      <point x="336" y="67" type="curve" smooth="yes"/>
      <point x="377" y="14"/>
      <point x="305" y="-41"/>
      <point x="264" y="13" type="curve" smooth="yes"/>
      <point x="225" y="64"/>
      <point x="179" y="123"/>
      <point x="135" y="171" type="curve" smooth="yes"/>
      <point x="60" y="257"/>
      <point x="60" y="283"/>
      <point x="138" y="363" type="curve" smooth="yes"/>
      <point x="182" y="408"/>
      <point x="223" y="449"/>
      <point x="260" y="489" type="curve" smooth="yes"/>
      <point x="306" y="538"/>
      <point x="372" y="477"/>
    </contour>
  </outline>
</glyph>
<glyph name="bar" format="2">
  <advance width="223"/>
  <unicode hex="007C"/>
  <outline>
    <contour>
      <point x="157" y="730" type="curve" smooth="yes"/>
      <point x="157" y="695"/>
      <point x="157" y="648"/>
      <point x="157" y="603" type="curve" smooth="yes"/>
      <point x="157" y="348"/>
      <point x="157" y="203"/>
      <point x="157" y="33" type="curve" smooth="yes"/>
      <point x="157" y="-51"/>
      <point x="157" y="-90"/>
      <point x="157" y="-120" type="curve" smooth="yes"/>
      <point x="157" y="-187"/>
      <point x="67" y="-187"/>
      <point x="67" y="-120" type="curve" smooth="yes"/>
      <point x="67" y="-75"/>
      <point x="67" y="-23"/>
      <point x="67" y="33" type="curve" smooth="yes"/>
      <point x="67" y="286"/>
      <point x="67" y="432"/>
      <point x="67" y="603" type="curve" smooth="yes"/>
      <point x="67" y="670"/>
      <point x="67" y="706"/>
      <point x="67" y="730" type="curve" smooth="yes"/>
      <point x="67" y="798"/>
      <point x="157" y="798"/>
    </contour>
  </outline>
</glyph>
<glyph name="cent" format="2">
  <advance width="335"/>
  <unicode hex="00A2"/>
  <outline>
    <contour>
      <point x="243" y="638" type="curve" smooth="yes"/>
      <point x="243" y="631"/>
      <point x="240" y="539"/>
      <point x="242" y="538" type="curve" smooth="yes"/>
      <point x="370" y="464"/>
      <point x="312" y="419"/>
      <point x="206" y="451" type="curve" smooth="yes"/>
      <point x="195" y="454"/>
      <point x="183" y="453"/>
      <point x="169" y="447" type="curve" smooth="yes"/>
      <point x="136" y="433"/>
      <point x="110" y="405"/>
      <point x="110" y="314" type="curve" smooth="yes"/>
      <point x="110" y="239"/>
      <point x="137" y="194"/>
      <point x="170" y="180" type="curve" smooth="yes"/>
      <point x="182" y="175"/>
      <point x="195" y="174"/>
      <point x="205" y="177" type="curve" smooth="yes"/>
      <point x="333" y="218"/>
      <point x="351" y="163"/>
      <point x="244" y="92" type="curve" smooth="yes"/>
      <point x="228" y="81"/>
      <point x="218" y="52"/>
      <point x="216" y="-10" type="curve" smooth="yes"/>
      <point x="214" y="-78"/>
      <point x="124" y="-75"/>
      <point x="126" y="-8" type="curve" smooth="yes"/>
      <point x="130" y="112"/>
      <point x="165" y="148"/>
      <point x="194" y="166" type="curve" smooth="yes"/>
      <point x="198" y="169"/>
      <point x="238" y="93"/>
      <point x="233" y="91" type="curve" smooth="yes"/>
      <point x="205" y="82"/>
      <point x="170" y="83"/>
      <point x="134" y="98" type="curve" smooth="yes"/>
      <point x="79" y="121"/>
      <point x="20" y="188"/>
      <point x="20" y="314" type="curve" smooth="yes"/>
      <point x="20" y="458"/>
      <point x="81" y="507"/>
      <point x="135" y="531" type="curve" smooth="yes"/>
      <point x="169" y="545"/>
      <point x="203" y="546"/>
      <point x="232" y="537" type="curve" smooth="yes"/>
      <point x="236" y="536"/>
      <point x="201" y="457"/>
      <point x="196" y="460" type="curve" smooth="yes"/>
      <point x="161" y="481"/>
      <point x="147" y="509"/>
      <point x="153" y="642" type="curve" smooth="yes"/>
      <point x="156" y="709"/>
      <point x="246" y="705"/>
    </contour>
  </outline>
</glyph>
<glyph name="yen" format="2">
  <advance width="423"/>
  <unicode hex="00A5"/>
  <outline>
    <contour>
      <point x="104" y="659" type="curve" smooth="yes"/>
      <point x="253" y="337" type="line"/>
      <point x="171" y="337" type="line"/>
      <point x="320" y="659" type="line" smooth="yes"/>
      <point x="349" y="720"/>
      <point x="430" y="682"/>
      <point x="402" y="621" type="curve" smooth="yes"/>
      <point x="253" y="299" type="line" smooth="yes"/>
      <point x="237" y="264"/>
      <point x="187" y="264"/>
      <point x="171" y="299" type="curve" smooth="yes"/>
      <point x="22" y="621" type="line" smooth="yes"/>
      <point x="-6" y="682"/>
      <point x="75" y="720"/>
    </contour>
    <contour>
      <point x="257" y="318" type="curve" smooth="yes"/>
      <point x="257" y="40" type="line" smooth="yes"/>
      <point x="257" y="-28"/>
      <point x="167" y="-27"/>
      <point x="167" y="40" type="curve" smooth="yes"/>
      <point x="167" y="318" type="line" smooth="yes"/>
      <point x="167" y="386"/>
      <point x="257" y="386"/>
    </contour>
    <contour>
      <point x="345" y="113" type="curve" smooth="yes"/>
      <point x="77" y="113" type="line" smooth="yes"/>
      <point x="9" y="113"/>
      <point x="10" y="203"/>
      <point x="77" y="203" type="curve" smooth="yes"/>
      <point x="345" y="203" type="line" smooth="yes"/>
      <point x="413" y="203"/>
      <point x="413" y="113"/>
    </contour>
    <contour>
      <point x="78" y="363" type="curve" smooth="yes"/>
      <point x="346" y="363" type="line" smooth="yes"/>
      <point x="414" y="363"/>
      <point x="414" y="273"/>
      <point x="346" y="273" type="curve" smooth="yes"/>
      <point x="78" y="273" type="line" smooth="yes"/>
      <point x="11" y="273"/>
      <point x="11" y="363"/>
    </contour>
  </outline>
</glyph>
<glyph name="paragraph" format="2">
  <advance width="550"/>
  <unicode hex="00B6"/>
  <outline>
    <contour>
      <point x="398" y="40" type="curve" smooth="yes"/>
      <point x="398" y="139"/>
      <point x="398" y="398"/>
      <point x="398" y="531" type="curve" smooth="yes"/>
      <point x="398" y="588"/>
      <point x="406" y="590"/>
      <point x="352" y="590" type="curve" smooth="yes"/>
      <point x="286" y="590"/>
      <point x="235" y="590"/>
      <point x="192" y="590" type="curve" smooth="yes"/>
      <point x="140" y="590"/>
      <point x="110" y="533"/>
      <point x="110" y="464" type="curve" smooth="yes"/>
      <point x="110" y="400"/>
      <point x="143" y="341"/>
      <point x="182" y="341" type="curve" smooth="yes"/>
      <point x="215" y="341"/>
      <point x="235" y="336"/>
      <point x="235" y="383" type="curve" smooth="yes"/>
      <point x="235" y="445"/>
      <point x="235" y="450"/>
      <point x="235" y="494" type="curve" smooth="yes"/>
      <point x="235" y="524"/>
      <point x="325" y="771"/>
      <point x="325" y="492" type="curve" smooth="yes"/>
      <point x="325" y="285"/>
      <point x="325" y="113"/>
      <point x="325" y="40" type="curve" smooth="yes"/>
      <point x="325" y="-28"/>
      <point x="235" y="-27"/>
      <point x="235" y="40" type="curve" smooth="yes"/>
      <point x="235" y="148"/>
      <point x="235" y="353"/>
      <point x="235" y="492" type="curve" smooth="yes"/>
      <point x="235" y="522"/>
      <point x="325" y="771"/>
      <point x="325" y="494" type="curve" smooth="yes"/>
      <point x="325" y="428"/>
      <point x="325" y="425"/>
      <point x="325" y="383" type="curve" smooth="yes"/>
      <point x="325" y="273"/>
      <point x="259" y="251"/>
      <point x="182" y="251" type="curve" smooth="yes"/>
      <point x="102" y="251"/>
      <point x="20" y="332"/>
      <point x="20" y="464" type="curve" smooth="yes"/>
      <point x="20" y="594"/>
      <point x="95" y="680"/>
      <point x="192" y="680" type="curve" smooth="yes"/>
      <point x="257" y="680"/>
      <point x="308" y="680"/>
      <point x="352" y="680" type="curve" smooth="yes"/>
      <point x="465" y="680"/>
      <point x="488" y="649"/>
      <point x="488" y="531" type="curve" smooth="yes"/>
      <point x="488" y="332"/>
      <point x="488" y="106"/>
      <point x="488" y="40" type="curve" smooth="yes"/>
      <point x="488" y="-28"/>
      <point x="398" y="-27"/>
    </contour>
  </outline>
</glyph>
<glyph name="onesuperior" format="2">
  <advance width="240"/>
  <unicode hex="00B9"/>
  <outline>
    <contour>
      <point x="44" y="660" type="curve" smooth="yes"/>
      <point x="155" y="693"/>
      <point x="180" y="647"/>
      <point x="180" y="552" type="curve" smooth="yes"/>
      <point x="180" y="453"/>
      <point x="180" y="376"/>
      <point x="180" y="311" type="curve" smooth="yes"/>
      <point x="180" y="244"/>
      <point x="90" y="244"/>
      <point x="90" y="311" type="curve" smooth="yes"/>
      <point x="90" y="408"/>
      <point x="90" y="486"/>
      <point x="90" y="552" type="curve" smooth="yes"/>
      <point x="90" y="575"/>
      <point x="96" y="582"/>
      <point x="70" y="574" type="curve" smooth="yes"/>
      <point x="5" y="555"/>
      <point x="-21" y="641"/>
    </contour>
  </outline>
</glyph>
<glyph name="onehalf" format="2">
  <advance width="664"/>
  <unicode hex="00BD"/>
  <outline>
    <contour>
      <point x="43" y="660" type="curve" smooth="yes"/>
      <point x="154" y="693"/>
      <point x="179" y="647"/>
      <point x="179" y="552" type="curve" smooth="yes"/>
      <point x="179" y="453"/>
      <point x="179" y="376"/>
      <point x="179" y="311" type="curve" smooth="yes"/>
      <point x="179" y="244"/>
      <point x="89" y="244"/>
      <point x="89" y="311" type="curve" smooth="yes"/>
      <point x="89" y="408"/>
      <point x="89" y="486"/>
      <point x="89" y="552" type="curve" smooth="yes"/>
      <point x="89" y="575"/>
      <point x="95" y="582"/>
      <point x="69" y="574" type="curve" smooth="yes"/>
      <point x="4" y="555"/>
      <point x="-22" y="641"/>
    </contour>
    <contour>
      <point x="473" y="622" type="curve" smooth="yes"/>
      <point x="208" y="22" type="line" smooth="yes"/>
      <point x="181" y="-40"/>
      <point x="99" y="-4"/>
      <point x="126" y="58" type="curve" smooth="yes"/>
      <point x="391" y="658" type="line" smooth="yes"/>
      <point x="418" y="720"/>
      <point x="500" y="684"/>
    </contour>
    <contour>
      <point x="595" y="4" type="curve" smooth="yes"/>
      <point x="567" y="4"/>
      <point x="546" y="4"/>
      <point x="527" y="4" type="curve" smooth="yes"/>
      <point x="407" y="4"/>
      <point x="371" y="58"/>
      <point x="460" y="158" type="curve" smooth="yes"/>
      <point x="503" y="204"/>
      <point x="540" y="249"/>
      <point x="540" y="282" type="curve" smooth="yes"/>
      <point x="540" y="328"/>
      <point x="505" y="345"/>
      <point x="469" y="315" type="curve" smooth="yes"/>
      <point x="418" y="271"/>
      <point x="359" y="340"/>
      <point x="411" y="383" type="curve" smooth="yes"/>
      <point x="505" y="463"/>
      <point x="630" y="404"/>
      <point x="630" y="282" type="curve" smooth="yes"/>
      <point x="630" y="226"/>
      <point x="599" y="177"/>
      <point x="528" y="98" type="curve" smooth="yes"/>
      <point x="523" y="93"/>
      <point x="521" y="94"/>
      <point x="527" y="94" type="curve" smooth="yes"/>
      <point x="555" y="94"/>
      <point x="576" y="94"/>
      <point x="595" y="94" type="curve" smooth="yes"/>
      <point x="663" y="94"/>
      <point x="663" y="4"/>
    </contour>
  </outline>
</glyph>
<glyph name="multiply" format="2">
  <advance width="365"/>
  <unicode hex="00D7"/>
  <outline>
    <contour>
      <point x="118" y="478" type="curve" smooth="yes"/>
      <point x="187" y="379"/>
      <point x="257" y="281"/>
      <point x="322" y="190" type="curve" smooth="yes"/>
      <point x="361" y="135"/>
      <point x="287" y="83"/>
      <point x="248" y="138" type="curve" smooth="yes"/>
      <point x="179" y="237"/>
      <point x="109" y="335"/>
      <point x="44" y="426" type="curve" smooth="yes"/>
      <point x="5" y="481"/>
      <point x="79" y="533"/>
    </contour>
    <contour>
      <point x="322" y="426" type="curve" smooth="yes"/>
      <point x="257" y="335"/>
      <point x="187" y="237"/>
      <point x="118" y="138" type="curve" smooth="yes"/>
      <point x="79" y="83"/>
      <point x="5" y="135"/>
      <point x="44" y="190" type="curve" smooth="yes"/>
      <point x="109" y="281"/>
      <point x="179" y="379"/>
      <point x="248" y="478" type="curve" smooth="yes"/>
      <point x="287" y="533"/>
      <point x="361" y="481"/>
    </contour>
  </outline>
</glyph>
<glyph name="OE" format="2">
  <advance width="659"/>
  <unicode hex="0152"/>
  <outline>
    <contour>
      <point x="575" y="305" type="curve" smooth="yes"/>
      <point x="546" y="305"/>
      <point x="523" y="305"/>
      <point x="503" y="305" type="curve" smooth="yes"/>
      <point x="475" y="305"/>
      <point x="452" y="305"/>
      <point x="433" y="305" type="curve" smooth="yes"/>
      <point x="364" y="305"/>
      <point x="333" y="322"/>
      <point x="333" y="418" type="curve" smooth="yes"/>
      <point x="333" y="444"/>
      <point x="333" y="461"/>
      <point x="333" y="476" type="curve" smooth="yes"/>
      <point x="333" y="515"/>
      <point x="423" y="783"/>
      <point x="423" y="476" type="curve" smooth="yes"/>
      <point x="423" y="368"/>
      <point x="423" y="168"/>
      <point x="423" y="125" type="curve" smooth="yes"/>
      <point x="423" y="103"/>
      <point x="421" y="90"/>
      <point x="437" y="90" type="curve" smooth="yes"/>
      <point x="483" y="90"/>
      <point x="502" y="90"/>
      <point x="529" y="90" type="curve" smooth="yes"/>
      <point x="551" y="90"/>
      <point x="779" y="0"/>
      <point x="529" y="0" type="curve" smooth="yes"/>
      <point x="417" y="0"/>
      <point x="327" y="0"/>
      <point x="253" y="0" type="curve" smooth="yes"/>
      <point x="117" y="0"/>
      <point x="18" y="135"/>
      <point x="18" y="339" type="curve" smooth="yes"/>
      <point x="18" y="544"/>
      <point x="116" y="680"/>
      <point x="252" y="680" type="curve" smooth="yes"/>
      <point x="353" y="680"/>
      <point x="435" y="680"/>
      <point x="503" y="680" type="curve" smooth="yes"/>
      <point x="538" y="680"/>
      <point x="565" y="680"/>
      <point x="589" y="680" type="curve" smooth="yes"/>
      <point x="657" y="680"/>
      <point x="657" y="590"/>
      <point x="589" y="590" type="curve" smooth="yes"/>
      <point x="554" y="590"/>
      <point x="527" y="590"/>
      <point x="503" y="590" type="curve" smooth="yes"/>
      <point x="402" y="590"/>
      <point x="320" y="590"/>
      <point x="252" y="590" type="curve" smooth="yes"/>
      <point x="161" y="590"/>
      <point x="108" y="476"/>
      <point x="108" y="339" type="curve" smooth="yes"/>
      <point x="108" y="203"/>
      <point x="162" y="90"/>
      <point x="253" y="90" type="curve" smooth="yes"/>
      <point x="364" y="90"/>
      <point x="454" y="90"/>
      <point x="529" y="90" type="curve" smooth="yes"/>
      <point x="551" y="90"/>
      <point x="779" y="0"/>
      <point x="529" y="0" type="curve" smooth="yes"/>
      <point x="489" y="0"/>
      <point x="468" y="0"/>
      <point x="437" y="0" type="curve" smooth="yes"/>
      <point x="374" y="0"/>
      <point x="333" y="36"/>
      <point x="333" y="125" type="curve" smooth="yes"/>
      <point x="333" y="190"/>
      <point x="333" y="403"/>
      <point x="333" y="476" type="curve" smooth="yes"/>
      <point x="333" y="515"/>
      <point x="423" y="783"/>
      <point x="423" y="476" type="curve" smooth="yes"/>
      <point x="423" y="454"/>
      <point x="423" y="435"/>
      <point x="423" y="418" type="curve" smooth="yes"/>
      <point x="423" y="399"/>
      <point x="419" y="395"/>
      <point x="433" y="395" type="curve" smooth="yes"/>
      <point x="461" y="395"/>
      <point x="484" y="395"/>
      <point x="503" y="395" type="curve" smooth="yes"/>
      <point x="532" y="395"/>
      <point x="555" y="395"/>
      <point x="575" y="395" type="curve" smooth="yes"/>
      <point x="643" y="395"/>
      <point x="643" y="305"/>
    </contour>
  </outline>
</glyph>
<glyph name="quotedblright" format="2">
  <advance width="336"/>
  <unicode hex="201D"/>
  <outline>
    <contour>
      <point x="40" y="463" type="curve" smooth="yes"/>
      <point x="59" y="509"/>
      <point x="76" y="588"/>
      <point x="56" y="614" type="curve" smooth="yes"/>
      <point x="15" y="667"/>
      <point x="87" y="722"/>
      <point x="128" y="668" type="curve" smooth="yes"/>
      <point x="167" y="617"/>
      <point x="162" y="522"/>
      <point x="124" y="429" type="curve" smooth="yes"/>
      <point x="98" y="366"/>
      <point x="15" y="401"/>
    </contour>
    <contour>
      <point x="181" y="463" type="curve" smooth="yes"/>
      <point x="200" y="509"/>
      <point x="217" y="588"/>
      <point x="197" y="614" type="curve" smooth="yes"/>
      <point x="156" y="667"/>
      <point x="228" y="722"/>
      <point x="269" y="668" type="curve" smooth="yes"/>
      <point x="308" y="617"/>
      <point x="303" y="522"/>
      <point x="265" y="429" type="curve" smooth="yes"/>
      <point x="239" y="366"/>
      <point x="156" y="401"/>
    </contour>
  </outline>
</glyph>
<glyph name="quotedblbase" format="2">
  <advance width="336"/>
  <unicode hex="201E"/>
  <outline>
    <contour>
      <point x="40" y="-97" type="curve" smooth="yes"/>
      <point x="59" y="-51"/>
      <point x="76" y="28"/>
      <point x="56" y="53" type="curve" smooth="yes"/>
      <point x="14" y="106"/>
      <point x="84" y="162"/>
      <point x="126" y="109" type="curve" smooth="yes"/>
      <point x="167" y="58"/>
      <point x="162" y="-38"/>
      <point x="124" y="-131" type="curve" smooth="yes"/>
      <point x="98" y="-194"/>
      <point x="15" y="-159"/>
    </contour>
    <contour>
      <point x="181" y="-97" type="curve" smooth="yes"/>
      <point x="200" y="-51"/>
      <point x="217" y="28"/>
      <point x="197" y="54" type="curve" smooth="yes"/>
      <point x="156" y="107"/>
      <point x="228" y="162"/>
      <point x="269" y="108" type="curve" smooth="yes"/>
      <point x="308" y="57"/>
      <point x="303" y="-38"/>
      <point x="265" y="-131" type="curve" smooth="yes"/>
      <point x="239" y="-194"/>
      <point x="156" y="-159"/>
    </contour>
  </outline>
</glyph>
<glyph name="R" format="2">
  <advance width="453"/>
  <outline>
    <contour>
      <point x="72.81577257636624" y="11.160151465296845" type="curve" smooth="yes"/>
      <point x="54.520850837505044" y="37.04211084265651"/>
      <point x="42.435794268670804" y="69.57551210212797"/>
      <point x="42.4447364148412" y="142.03235225434418" type="curve" smooth="yes"/>
      <point x="42.49508908788471" y="550.0323460401489" type="line" smooth="yes"/>
      <point x="42.505936959999595" y="637.9309914934705"/>
      <point x="89.47180580255709" y="690.0261739986073"/>
      <point x="156.1458062211912" y="690.0261739986073" type="curve" smooth="yes"/>
      <point x="219.7854165279805" y="690.0261739986073" type="line" smooth="yes"/>
      <point x="316.34175598278495" y="690.0261739986073"/>
      <point x="388.5754721921715" y="608.5550743386353"/>
      <point x="388.55911558659983" y="476.020005825707" type="curve" smooth="yes"/>
      <point x="388.5420301078514" y="337.5789896533191"/>
      <point x="313.0162390317897" y="260.0261790247947"/>
      <point x="242.37210709922365" y="260.0261790247947" type="curve" smooth="yes"/>
      <point x="202.06702057159043" y="260.0261790247947" type="line" smooth="yes"/>
      <point x="199.77383232785442" y="260.0261790247947"/>
      <point x="207.83099727029824" y="360.013413203518"/>
      <point x="209.85753568738505" y="360.01291299945984" type="curve" smooth="yes"/>
      <point x="236.00920354892196" y="360.00645806612164"/>
      <point x="278.44796852256593" y="359.99999908614774"/>
      <point x="309.5472496964679" y="359.99999908614774" type="curve" smooth="yes"/>
      <point x="312.37567682121403" y="359.99999908614774" type="line" smooth="yes"/>
      <point x="386.89339634668767" y="359.99999908614774"/>
      <point x="398.3777054449092" y="326.4643316779342"/>
      <point x="380.23627215210865" y="246.01476069774054" type="curve" smooth="yes"/>
      <point x="371.85183870274165" y="208.83335044052313"/>
      <point x="372.01612595930186" y="160.01240754322265"/>
      <point x="385.8695040132007" y="127.7586490356758" type="curve" smooth="yes"/>
      <point x="397.58304774349523" y="100.48690280348649"/>
      <point x="407.19882292402804" y="90.88882961503646"/>
      <point x="421.7379898695619" y="79.87041009739161" type="curve" smooth="yes"/>
      <point x="481.5121842915486" y="34.57089926998272"/>
      <point x="421.11283652167003" y="-45.12802662599953"/>
      <point x="361.33864209968334" y="0.17148420140936338" type="curve" smooth="yes"/>
      <point x="336.32429981534335" y="19.12845183781763"/>
      <point x="314.1392375400483" y="41.373228078810634"/>
      <point x="293.9863227733476" y="88.29371516718552" type="curve" smooth="yes"/>
      <point x="271.92635465790903" y="139.65424842566293"/>
      <point x="269.3344871560865" y="208.80519406603676"/>
      <point x="282.68576753257173" y="268.0124662252202" type="curve" smooth="yes"/>
      <point x="283.4128293180332" y="271.23667722180517"/>
      <point x="315.3621545339864" y="259.99999908614774"/>
      <point x="312.37567682121403" y="259.99999908614774" type="curve" smooth="yes"/>
      <point x="309.5472496964679" y="259.99999908614774" type="line" smooth="yes"/>
      <point x="278.4294368767597" y="259.99999908614774"/>
      <point x="236.0001042956548" y="260.00645726588726"/>
      <point x="209.83285300488234" y="260.012916045634" type="curve" smooth="yes"/>
      <point x="116.04772621317477" y="260.03606473139894"/>
      <point x="95.94174390143554" y="360.0261790247947"/>
      <point x="202.06702057159043" y="360.0261790247947" type="curve" smooth="yes"/>
      <point x="242.37210709922365" y="360.0261790247947" type="line" smooth="yes"/>
      <point x="266.64328345220997" y="360.0261790247947"/>
      <point x="288.55324629699504" y="428.468222220322"/>
      <point x="288.5591163481434" y="476.0323471672333" type="curve" smooth="yes"/>
      <point x="288.566948318725" y="539.493604643068"/>
      <point x="266.0191174481841" y="590.0261739986073"/>
      <point x="219.7854165279805" y="590.0261739986073" type="curve" smooth="yes"/>
      <point x="156.1458062211912" y="590.0261739986073" type="line" smooth="yes"/>
      <point x="144.75578766910402" y="590.0261739986073"/>
      <point x="142.49694148445167" y="565.0358608963986"/>
      <point x="142.49508832634115" y="550.0200046986226" type="curve" smooth="yes"/>
      <point x="142.44473565329764" y="142.02001091281795" type="line" smooth="yes"/>
      <point x="142.44023416144677" y="105.54511223957"/>
      <point x="145.26523412914725" y="81.91076595638785"/>
      <point x="154.47492938025258" y="68.88174283350412" type="curve" smooth="yes"/>
      <point x="197.76612290640807" y="7.6373752305893845"/>
      <point x="116.10696610252174" y="-50.08421613761789"/>
    </contour>
  </outline>
</glyph>
<glyph name="U" format="2">
  <advance width="486"/>
  <outline>
    <contour>
      <point x="144.99574389650624" y="603.6334223039416" type="curve" smooth="yes"/>
      <point x="139.50838833859686" y="598.4618500359228"/>
      <point x="137.03963591217857" y="541.8511637550988"/>
      <point x="136.63122625974353" y="525.7577148449976" type="curve" smooth="yes"/>
      <point x="129.52536805104947" y="271.6303484320906" type="line" smooth="yes"/>
      <point x="126.9214180474079" y="172.6661358380772"/>
      <point x="187.90825235797874" y="90.02269247864363"/>
      <point x="252.75730981000854" y="90.02269247864362" type="curve" smooth="yes"/>
      <point x="313.3018245383816" y="90.0226924786436"/>
      <point x="329.8461613367119" y="184.73835336960846"/>
      <point x="332.2039064184486" y="274.3431058849122" type="curve" smooth="yes"/>
      <point x="339.30855714407164" y="528.4237522051852" type="line" smooth="yes"/>
      <point x="341.3393112326758" y="605.6039820830231"/>
      <point x="347.30033127962145" y="642.9222911409456"/>
      <point x="373.60895181056435" y="672.962569153448" type="curve" smooth="yes"/>
      <point x="423.02166032380615" y="729.3840565264817"/>
      <point x="498.2503101545177" y="663.5004451754927"/>
      <point x="448.8376016412759" y="607.0789578024591" type="curve" smooth="yes"/>
      <point x="441.247958681219" y="598.4127875535257"/>
      <point x="439.8582083180797" y="548.0001049024964"/>
      <point x="439.2694851102966" y="525.6285992342063" type="curve" smooth="yes"/>
      <point x="432.1693064131101" y="271.712743950248" type="line" smooth="yes"/>
      <point x="427.58698477305524" y="97.56423244102777"/>
      <point x="370.4267059527347" y="-9.977307521356394"/>
      <point x="252.75730981000848" y="-9.97730752135638" type="curve" smooth="yes"/>
      <point x="141.4101548928677" y="-9.977307521356366"/>
      <point x="25.087329497630577" y="104.2780586690561"/>
      <point x="29.56444008482444" y="274.4255014030696" type="curve" smooth="yes"/>
      <point x="36.66341129894006" y="528.2946365943939" type="line" smooth="yes"/>
      <point x="38.780297151466904" y="611.7108685885086"/>
      <point x="47.967756522853655" y="649.6015495428992"/>
      <point x="76.41004548214951" y="676.4070574544198" type="curve" smooth="yes"/>
      <point x="130.99027184500807" y="727.8463312651875"/>
      <point x="199.5759702593648" y="655.0726961147093"/>
    </contour>
  </outline>
</glyph>
